<svg xmlns="http://www.w3.org/2000/svg" width="805" height="600"><rect width="805" height="600" x="0" y="0" fill="#FFFFFF" id="backgorund"/><g id="viz"><clipPath id="serieClipPath"><rect x="-50" y="-10" width="805" height="600"/></clipPath><g transform="translate(0,0)"><g transform="translate(50,10)" clip-path="url(#serieClipPath)"><g id="axis"><g transform="translate(0,570)" fill="none" font-size="10" font-family="sans-serif" text-anchor="middle"><path class="domain" stroke="currentColor" d="M0.5,6V0.5H740.5V6"/><g class="tick" opacity="1" transform="translate(0.5,0)"><line stroke="currentColor" y2="6"/><text fill="currentColor" y="9" dy="0.71em">Tue 11</text></g><g class="tick" opacity="1" transform="translate(48.24193548387097,0)"><line stroke="currentColor" y2="6"/><text fill="currentColor" y="9" dy="0.71em">Thu 13</text></g><g class="tick" opacity="1" transform="translate(95.98387096774194,0)"><line stroke="currentColor" y2="6"/><text fill="currentColor" y="9" dy="0.71em">Sat 15</text></g><g class="tick" opacity="1" transform="translate(143.7258064516129,0)"><line stroke="currentColor" y2="6"/><text fill="currentColor" y="9" dy="0.71em">Mon 17</text></g><g class="tick" opacity="1" transform="translate(191.46774193548387,0)"><line stroke="currentColor" y2="6"/><text fill="currentColor" y="9" dy="0.71em">Wed 19</text></g><g class="tick" opacity="1" transform="translate(239.20967741935482,0)"><line stroke="currentColor" y2="6"/><text fill="currentColor" y="9" dy="0.71em">Fri 21</text></g><g class="tick" opacity="1" transform="translate(286.9516129032258,0)"><line stroke="currentColor" y2="6"/><text fill="currentColor" y="9" dy="0.71em">Oct 23</text></g><g class="tick" opacity="1" transform="translate(334.69354838709677,0)"><line stroke="currentColor" y2="6"/><text fill="currentColor" y="9" dy="0.71em">Tue 25</text></g><g class="tick" opacity="1" transform="translate(382.43548387096774,0)"><line stroke="currentColor" y2="6"/><text fill="currentColor" y="9" dy="0.71em">Thu 27</text></g><g class="tick" opacity="1" transform="translate(430.1774193548387,0)"><line stroke="currentColor" y2="6"/><text fill="currentColor" y="9" dy="0.71em">Sat 29</text></g><g class="tick" opacity="1" transform="translate(477.91935483870964,0)"><line stroke="currentColor" y2="6"/><text fill="currentColor" y="9" dy="0.71em">Mon 31</text></g><g class="tick" opacity="1" transform="translate(501.7903225806451,0)"><line stroke="currentColor" y2="6"/><text fill="currentColor" y="9" dy="0.71em">November</text></g><g class="tick" opacity="1" transform="translate(549.5322580645161,0)"><line stroke="currentColor" y2="6"/><text fill="currentColor" y="9" dy="0.71em">Thu 03</text></g><g class="tick" opacity="1" transform="translate(597.2741935483871,0)"><line stroke="currentColor" y2="6"/><text fill="currentColor" y="9" dy="0.71em">Sat 05</text></g><g class="tick" opacity="1" transform="translate(645.016129032258,0)"><line stroke="currentColor" y2="6"/><text fill="currentColor" y="9" dy="0.71em">Mon 07</text></g><g class="tick" opacity="1" transform="translate(692.758064516129,0)"><line stroke="currentColor" y2="6"/><text fill="currentColor" y="9" dy="0.71em">Wed 09</text></g><g class="tick" opacity="1" transform="translate(740.5,0)"><line stroke="currentColor" y2="6"/><text fill="currentColor" y="9" dy="0.71em">Fri 11</text></g><text x="740" dy="-5" text-anchor="end" style="font-family: Arial, sans-serif; font-size: 12px; fill: rgb(123, 123, 123); font-weight: bold;">日期</text></g><g transform="translate(0,0)" fill="none" font-size="10" font-family="sans-serif" text-anchor="end"><path class="domain" stroke="currentColor" d="M0.5,570.5V0.5"/><g class="tick" opacity="1" transform="translate(0,570.5)"><line stroke="currentColor" x2="-6"/><text fill="currentColor" x="-9" dy="0.32em">100.0</text></g><g class="tick" opacity="1" transform="translate(0,513.5)"><line stroke="currentColor" x2="-6"/><text fill="currentColor" x="-9" dy="0.32em">100.5</text></g><g class="tick" opacity="1" transform="translate(0,456.5)"><line stroke="currentColor" x2="-6"/><text fill="currentColor" x="-9" dy="0.32em">101.0</text></g><g class="tick" opacity="1" transform="translate(0,399.5)"><line stroke="currentColor" x2="-6"/><text fill="currentColor" x="-9" dy="0.32em">101.5</text></g><g class="tick" opacity="1" transform="translate(0,342.5)"><line stroke="currentColor" x2="-6"/><text fill="currentColor" x="-9" dy="0.32em">102.0</text></g><g class="tick" opacity="1" transform="translate(0,285.5)"><line stroke="currentColor" x2="-6"/><text fill="currentColor" x="-9" dy="0.32em">102.5</text></g><g class="tick" opacity="1" transform="translate(0,228.5)"><line stroke="currentColor" x2="-6"/><text fill="currentColor" x="-9" dy="0.32em">103.0</text></g><g class="tick" opacity="1" transform="translate(0,171.50000000000003)"><line stroke="currentColor" x2="-6"/><text fill="currentColor" x="-9" dy="0.32em">103.5</text></g><g class="tick" opacity="1" transform="translate(0,114.49999999999997)"><line stroke="currentColor" x2="-6"/><text fill="currentColor" x="-9" dy="0.32em">104.0</text></g><g class="tick" opacity="1" transform="translate(0,57.499999999999986)"><line stroke="currentColor" x2="-6"/><text fill="currentColor" x="-9" dy="0.32em">104.5</text></g><g class="tick" opacity="1" transform="translate(0,0.5)"><line stroke="currentColor" x2="-6"/><text fill="currentColor" x="-9" dy="0.32em">105.0</text></g><text x="4" text-anchor="start" dominant-baseline="hanging" style="font-family: Arial, sans-serif; font-size: 12px; fill: rgb(123, 123, 123); font-weight: bold;">收盤</text></g></g><g id="viz"><g><path d="M23.870967741935484,228C35.806451612903224,228,35.806451612903224,171.00000000000003,47.74193548387097,171.00000000000003C59.677419354838705,171.00000000000003,59.677419354838705,0,71.61290322580645,0C107.41935483870967,0,107.41935483870967,0,143.2258064516129,0C155.16129032258064,0,155.16129032258064,171.00000000000003,167.09677419354838,171.00000000000003C179.03225806451613,171.00000000000003,179.03225806451613,228,190.96774193548387,228C202.90322580645162,228,202.90322580645162,285,214.83870967741936,285C226.77419354838707,285,226.77419354838707,171.00000000000003,238.70967741935482,171.00000000000003C274.51612903225805,171.00000000000003,274.51612903225805,228,310.3225806451613,228C322.258064516129,228,322.258064516129,171.00000000000003,334.19354838709677,171.00000000000003C346.1290322580645,171.00000000000003,346.1290322580645,113.99999999999997,358.06451612903226,113.99999999999997C370,113.99999999999997,370,113.99999999999997,381.93548387096774,113.99999999999997C393.8709677419355,113.99999999999997,393.8709677419355,113.99999999999997,405.8064516129032,113.99999999999997C441.6129032258064,113.99999999999997,441.6129032258064,285,477.41935483870964,285C489.3548387096774,285,489.3548387096774,399,501.2903225806451,399C513.2258064516129,399,513.2258064516129,342,525.1612903225807,342C537.0967741935484,342,537.0967741935484,456,549.0322580645161,456C560.9677419354839,456,560.9677419354839,513,572.9032258064516,513C608.7096774193549,513,608.7096774193549,570,644.516129032258,570C656.4516129032259,570,656.4516129032259,570,668.3870967741935,570C680.3225806451612,570,680.3225806451612,285,692.258064516129,285C704.1935483870968,285,704.1935483870968,513,716.1290322580645,513C728.0645161290322,513,728.0645161290322,570,740,570" stroke="#1f77b4" fill="none"/><text font-family="sans-serif" font-size="10" class="labels" x="71.61290322580645" y="0" dx="0" dy="-4" text-anchor="middle"/></g></g></g><text y="4" x="4" style="font-family: Arial, sans-serif; font-size: 12px; fill: black; font-weight: bold; dominant-baseline: hanging;"/></g><g id="grid"><rect x="0" y="0" width="805" height="600" fill="none" stroke="#ccc"/></g></g></svg>